<svg xmlns="http://www.w3.org/2000/svg" version="1.1" xmlns:xlink="http://www.w3.org/1999/xlink" width="600" height="600"><svg version="1.1" id="SvgjsSvg1214" x="0px" y="0px" width="600" viewBox="0 0 600 600" enable-background="new 0 0 600 600" xml:space="preserve" sodipodi:docname="file.svg" height="600" inkscape:version="1.4 (86a8ad7, 2024-10-11)" xmlns:inkscape="http://www.inkscape.org/namespaces/inkscape" xmlns:sodipodi="http://sodipodi.sourceforge.net/DTD/sodipodi-0.dtd" xmlns="http://www.w3.org/2000/svg" xmlns:svg="http://www.w3.org/2000/svg"><defs id="SvgjsDefs1213"></defs><sodipodi:namedview id="SvgjsSodipodi:namedview1212" pagecolor="#ffffff" bordercolor="#000000" borderopacity="0.25" inkscape:showpageshadow="2" inkscape:pageopacity="0.0" inkscape:pagecheckerboard="0" inkscape:deskcolor="#d1d1d1" inkscape:zoom="1.4142136" inkscape:cx="103.9447" inkscape:cy="406.23284" inkscape:window-width="2560" inkscape:window-height="1369" inkscape:window-x="-8" inkscape:window-y="-8" inkscape:window-maximized="1" inkscape:current-layer="Layer_1"></sodipodi:namedview>

<rect style="fill:#000000;fill-opacity:1;stroke:#d55900;stroke-width:19.6692;stroke-linecap:butt;stroke-linejoin:round;stroke-dasharray:none;stroke-opacity:1;paint-order:normal" id="SvgjsRect1211" width="580.33075" height="580.33081" x="9.8346004" y="9.8346004" inkscape:label="rect4" rx="96.721794" ry="96.721809"></rect><path fill="#ffab6e" opacity="1" stroke="none" d="m 192.70264,481.28711 c -17.9747,-9.95484 -29.40593,-24.55444 -32.47705,-44.51489 -1.60093,-10.40519 -1.05634,-21.16382 -1.1847,-31.76636 -0.16734,-13.82498 0.16442,-27.65744 -0.10182,-41.47931 -0.23978,-12.44824 -3.58633,-23.72968 -13.30853,-32.48773 -5.67699,-5.11402 -12.39792,-7.90228 -19.63882,-8.79825 -3.59692,-0.44507 -5.19961,-2.14383 -5.64428,-4.69428 -2.01652,-11.56579 -2.40053,-23.21136 0.86235,-34.62234 0.4671,-1.63351 3.11256,-3.67358 4.83732,-3.75894 17.37098,-0.8599 28.55381,-14.45014 30.82481,-28.4652 1.38566,-8.55139 1.92853,-17.31015 2.01498,-25.98408 0.11878,-11.91705 -0.66031,-23.8402 -0.86035,-35.76399 -0.2767,-16.49312 1.99503,-32.48702 9.79179,-47.34131 4.22152,-8.04279 10.8584,-13.81778 17.68349,-19.49603 10.54822,-8.77578 23.29274,-10.81949 36.29207,-12.08563 5.23909,-0.51029 10.50978,-0.69645 15.7662,-1.02826 3.7603,-0.23737 6.74135,1.2437 6.97091,5.12153 0.67291,11.3685 1.33555,22.76851 1.15399,34.14265 -0.0814,5.09792 -6.30268,8.14751 -12.01026,6.5561 -7.20492,-2.00895 -14.48152,-0.41411 -19.22812,3.96743 -4.04785,3.73654 -6.86702,10.6558 -7.1334,16.3129 -1.08506,23.04327 -0.62496,46.15533 -1.45075,69.21637 -0.47029,13.13295 -1.67348,26.47099 -9.9252,37.59862 -4.6373,6.25354 -9.84456,12.03009 -17.94679,14.22262 -2.53024,0.68476 -4.73213,2.58289 -7.5786,4.20771 3.29439,1.9775 5.78702,3.86181 8.57121,5.07946 13.95172,6.10184 21.13933,17.42768 23.89009,31.69886 1.69423,8.78979 2.77977,17.80719 2.99149,26.74957 0.4454,18.81415 -0.10962,37.65042 0.21529,56.46951 0.24594,14.24527 7.1584,21.6315 21.57933,21.65528 3.49838,0.006 7.00962,0.19064 10.49206,-0.0451 4.82315,-0.32639 6.68636,2.56812 6.76644,6.53049 0.22885,11.32351 0.0272,22.65503 0.10316,33.98263 0.0377,5.61573 -4.30585,6.35083 -7.98277,6.39502 -15.07083,0.18122 -30.07978,-0.54364 -44.33554,-7.57507 z" id="SvgjsPath1210"></path>
<path fill="#ffab6e" opacity="1" stroke="none" d="m 396,359.82687 c -0.004,-11.80542 0.74661,-23.05529 5.38739,-33.57733 4.3754,-9.92032 11.08212,-17.82068 21.177,-22.43853 0.88681,-0.40568 1.79816,-0.8332 2.5553,-1.43131 1.66501,-1.31537 3.23859,-2.74646 4.84952,-4.13031 -1.74265,-0.97431 -3.37955,-2.29028 -5.24506,-2.86765 -12.48007,-3.86239 -18.83706,-13.52154 -23.70703,-24.64953 -4.14545,-9.47257 -5.461,-19.38481 -5.07819,-29.67559 0.30329,-8.15382 0.17987,-16.33006 0.0338,-24.49255 -0.2313,-12.92648 -0.0907,-25.89427 -1.13224,-38.76161 -0.98623,-12.18419 -6.27264,-21.65802 -21.14392,-22.7816 -2.6582,-0.20084 -5.37844,-0.3178 -8.00921,0.0119 -5.30139,0.66437 -8.4809,-1.91531 -8.69989,-7.31486 -0.28095,-6.92766 -0.85068,-13.84969 -0.91648,-20.77773 -0.042,-4.41992 0.2324,-8.91653 1.0521,-13.24874 0.71719,-3.79076 3.88467,-5.83004 7.60492,-5.60296 8.00482,0.48859 16.00137,1.29373 23.95843,2.30628 3.82495,0.48673 7.63623,1.48356 11.30918,2.68959 12.91027,4.23915 24.12408,11.46872 30.59829,23.43443 4.76181,8.80088 9.23725,18.78737 9.96375,28.53447 1.71283,22.97995 0.79339,46.1435 1.59131,69.21018 0.33865,9.7906 0.45767,20.00987 6.83075,28.47235 6.69357,8.88803 15.64633,14.14953 26.53595,16.35922 1.44555,0.29337 3.55175,1.66736 3.79748,2.86093 2.2749,11.05005 3.83844,22.10355 1.02463,33.42365 -1.11902,4.50171 -4.25232,4.9263 -7.50607,5.57898 -12.22379,2.45205 -21.13138,8.93567 -25.84018,20.71103 -3.01224,7.53289 -4.02188,15.34555 -4.06559,23.45785 -0.10812,20.09097 -0.0665,40.20914 -1.1802,60.25552 -0.4574,8.23264 -3.35269,16.4249 -5.8085,24.43018 -4.16959,13.59155 -13.21576,23.52762 -25.58384,30.06082 -5.1571,2.72415 -11.16662,4.18982 -16.96707,5.2598 -9.28561,1.7128 -18.6925,2.93503 -28.10126,3.75525 -6.27783,0.5473 -9.14004,-2.4094 -9.24173,-8.65555 -0.16003,-9.82883 -0.27657,-19.66992 0.0485,-29.4906 0.18411,-5.56183 2.66372,-9.39041 9.10412,-8.88733 5.02011,0.39215 10.14344,-0.49057 15.21781,-0.85095 7.66598,-0.54438 11.18976,-5.79383 13.17743,-12.26395 0.9917,-3.22821 1.31707,-6.76407 1.349,-10.16632 0.1391,-14.82919 -0.0175,-29.66107 0.10568,-44.49051 0.0381,-4.5954 0.62073,-9.18628 0.95407,-14.2569 z" id="SvgjsPath1209"></path>
</svg><style>@media (prefers-color-scheme: light) { :root { filter: none; } }
@media (prefers-color-scheme: dark) { :root { filter: none; } }
</style></svg>