<svg width="54" height="53" viewBox="0 0 54 53" fill="none" xmlns="http://www.w3.org/2000/svg">
<path d="M6.75 11.5938C5.82188 11.5938 5.0625 12.3391 5.0625 13.25V15.5377L23.2559 30.1955C25.4391 31.9553 28.5715 31.9553 30.7547 30.1955L48.9375 15.5377V13.25C48.9375 12.3391 48.1781 11.5938 47.25 11.5938H6.75ZM5.0625 21.966V39.75C5.0625 40.6609 5.82188 41.4062 6.75 41.4062H47.25C48.1781 41.4062 48.9375 40.6609 48.9375 39.75V21.966L33.9609 34.0359C29.9109 37.2967 24.0785 37.2967 20.0391 34.0359L5.0625 21.966ZM0 13.25C0 9.5959 3.02695 6.625 6.75 6.625H47.25C50.973 6.625 54 9.5959 54 13.25V39.75C54 43.4041 50.973 46.375 47.25 46.375H6.75C3.02695 46.375 0 43.4041 0 39.75V13.25Z" fill="#FFAB6E"/>
</svg>
