<svg width="46" height="49" viewBox="0 0 46 49" fill="none" xmlns="http://www.w3.org/2000/svg">
<path d="M15.3859 37.7562C15.3859 37.9437 15.1726 38.0938 14.9036 38.0938C14.5976 38.1219 14.3843 37.9719 14.3843 37.7562C14.3843 37.5687 14.5976 37.4187 14.8665 37.4187C15.1448 37.3906 15.3859 37.5406 15.3859 37.7562ZM12.5016 37.3344C12.4367 37.5219 12.6222 37.7375 12.9004 37.7937C13.1415 37.8875 13.4198 37.7937 13.4754 37.6062C13.531 37.4187 13.3548 37.2031 13.0766 37.1188C12.8355 37.0531 12.5665 37.1469 12.5016 37.3344ZM16.6008 37.175C16.3319 37.2406 16.1464 37.4188 16.1742 37.6344C16.202 37.8219 16.4431 37.9438 16.7214 37.8781C16.9903 37.8125 17.1758 37.6344 17.148 37.4469C17.1202 37.2687 16.8698 37.1469 16.6008 37.175ZM22.7032 1.25C9.83992 1.25 0 11.1219 0 24.125C0 34.5219 6.47339 43.4188 15.7198 46.55C16.9069 46.7656 17.3242 46.025 17.3242 45.4156C17.3242 44.8344 17.2964 41.6281 17.2964 39.6594C17.2964 39.6594 10.8044 41.0656 9.44113 36.8656C9.44113 36.8656 8.38387 34.1375 6.8629 33.4344C6.8629 33.4344 4.73911 31.9625 7.01129 31.9906C7.01129 31.9906 9.32056 32.1781 10.5911 34.4094C12.6222 38.0281 16.0258 36.9875 17.352 36.3688C17.5653 34.8688 18.1681 33.8281 18.8359 33.2094C13.6516 32.6281 8.42097 31.8687 8.42097 22.85C8.42097 20.2719 9.12581 18.9781 10.6097 17.3281C10.3685 16.7188 9.58024 14.2062 10.8508 10.9625C12.7891 10.3531 17.25 13.4938 17.25 13.4938C19.1048 12.9688 21.0988 12.6969 23.0742 12.6969C25.0496 12.6969 27.0435 12.9688 28.8984 13.4938C28.8984 13.4938 33.3593 10.3438 35.2976 10.9625C36.5681 14.2156 35.7798 16.7188 35.5387 17.3281C37.0226 18.9875 37.9315 20.2812 37.9315 22.85C37.9315 31.8969 32.469 32.6187 27.2847 33.2094C28.1379 33.95 28.8613 35.3562 28.8613 37.5594C28.8613 40.7188 28.8335 44.6281 28.8335 45.3969C28.8335 46.0062 29.2601 46.7469 30.4379 46.5312C39.7121 43.4188 46 34.5219 46 24.125C46 11.1219 35.5665 1.25 22.7032 1.25ZM9.01452 33.5844C8.89395 33.6781 8.92177 33.8937 9.07944 34.0719C9.22782 34.2219 9.44113 34.2875 9.56169 34.1656C9.68226 34.0719 9.65444 33.8563 9.49677 33.6781C9.34839 33.5281 9.13508 33.4625 9.01452 33.5844ZM8.0129 32.825C7.94798 32.9469 8.04073 33.0969 8.22621 33.1906C8.3746 33.2844 8.56008 33.2562 8.625 33.125C8.68992 33.0031 8.59718 32.8531 8.41169 32.7594C8.22621 32.7031 8.07782 32.7312 8.0129 32.825ZM11.0177 36.1625C10.8694 36.2844 10.925 36.5656 11.1383 36.7438C11.3516 36.9594 11.6206 36.9875 11.7411 36.8375C11.8617 36.7156 11.806 36.4344 11.6206 36.2562C11.4165 36.0406 11.1383 36.0125 11.0177 36.1625ZM9.96048 34.7844C9.8121 34.8781 9.8121 35.1219 9.96048 35.3375C10.1089 35.5531 10.3593 35.6469 10.4798 35.5531C10.6282 35.4312 10.6282 35.1875 10.4798 34.9719C10.35 34.7563 10.1089 34.6625 9.96048 34.7844Z" fill="#FFAB6E"/>
</svg>
