<svg width="46" height="53" viewBox="0 0 46 53" fill="none" xmlns="http://www.w3.org/2000/svg">
<path d="M42.7143 3.3125H3.27545C1.4683 3.3125 0 4.81348 0 6.65605V46.3439C0 48.1865 1.4683 49.6875 3.27545 49.6875H42.7143C44.5214 49.6875 46 48.1865 46 46.3439V6.65605C46 4.81348 44.5214 3.3125 42.7143 3.3125ZM13.9027 43.0625H7.08482V20.9309H13.9129V43.0625H13.9027ZM10.4937 17.9082C8.3067 17.9082 6.54063 16.1174 6.54063 13.9229C6.54063 11.7283 8.3067 9.9375 10.4937 9.9375C12.6705 9.9375 14.4469 11.7283 14.4469 13.9229C14.4469 16.1277 12.6808 17.9082 10.4937 17.9082ZM39.4594 43.0625H32.6415V32.2969C32.6415 29.7297 32.5902 26.4275 29.0991 26.4275C25.5464 26.4275 25.0022 29.2225 25.0022 32.1105V43.0625H18.1844V20.9309H24.725V23.9535H24.8174C25.7313 22.2145 27.9594 20.3822 31.2759 20.3822C38.1759 20.3822 39.4594 24.968 39.4594 30.9305V43.0625Z" fill="#FFAB6E"/>
</svg>
